<?xml version="1.0" encoding="UTF-8"?>
<svg xmlns="http://www.w3.org/2000/svg" width="1080" height="1350" viewBox="0 0 1080 1350">
  <rect width="1080" height="1350" fill="#42b449"/>
  <g transform="translate(45,680.9) scale(0.911607)" fill="#1A1A1A">
    
<path d="M0,1.25h48.16c27.57,0,43.11,9.72,53.59,43.28l2.72,8.78c6.6,21.33.78,32.62-13.98,38.58l.78,2.51c23.3,3.76,30.29,14.11,36.5,33.56l22.53,72.14c10.87,35.13-8.16,52.07-37.67,52.07h-34.95L0,1.25ZM63.69,81.86h4.27c4.27,0,5.82-3.14,4.27-8.15l-10.88-35.13c-1.94-5.96-3.88-7.53-9.32-7.53h-3.88l15.53,50.81ZM107.18,222.38h4.27c4.27,0,5.82-3.45,4.27-8.47l-30.29-97.86c-1.55-5.65-3.88-7.21-9.32-7.21h-3.88l34.95,113.54Z"/>
<path d="M172.98,231.47l-17.86-57.71c-7.38-23.52-5.44-31.68,9.32-49.24l9.71-11.6c6.21-7.53,7.38-11.92,3.88-22.9l-6.21-20.07c-1.55-5.65-2.72-7.53-6.21-7.53-4.27,0-5.83,3.45-4.27,8.47l9.32,30.74h-38.06l-5.05-16.31c-10.87-35.13,7.77-52.07,36.89-52.07,25.24,0,37.28,10.04,47.38,42.97l44.27,143.34c.78,2.51,1.55,3.45,4.66,3.45h3.11l8.93,29.17h-22.53c-16.31,0-23.3-5.02-27.18-18.19l-.78-2.51h-2.33c1.55,14.74-5.05,23.21-20.19,23.21s-21.75-7.53-26.8-23.21ZM206.77,217.99c1.55,5.65,2.72,7.53,6.21,7.53,4.27,0,5.83-3.45,4.27-8.47l-25.24-81.86c0,2.2-1.17,3.76-1.94,4.71-3.88,4.39-5.05,7.84-1.56,19.13l18.25,58.97Z"/>
<path d="M271.2,210.46l-7.77-25.41h38.06l9.71,31.68c1.55,5.65,2.72,7.53,6.21,7.53,4.27,0,5.83-3.45,4.27-8.47l-3.11-10.03c-14.37-46.73-69.13-64.93-85.82-119.19l-.78-2.51c-10.87-35.13,7.77-52.07,36.89-52.07,25.24,0,37.28,10.04,47.38,42.97l7.77,25.41h-38.06l-9.71-31.68c-1.56-5.65-2.72-7.53-6.21-7.53-4.27,0-5.83,3.45-4.27,8.47l3.11,10.04c14.37,46.73,69.13,64.93,85.82,119.19l.78,2.51c10.88,35.13-7.76,52.07-36.89,52.07-25.24,0-37.28-10.04-47.38-42.97Z"/>
<path d="M390.18,230.85l-51.65-167.18h-11.65l-8.93-29.17h11.65L318.72,0h38.06l10.87,34.5h11.65l8.93,29.17h-11.65l47.77,154.63c.78,2.82,1.94,3.45,5.44,3.45h7.38l8.93,29.17h-22.52c-18.64,0-28.74-5.02-33.4-20.07Z"/>
<path d="M452.75,230.22l-17.86-57.71c-7.38-23.52-5.44-31.68,9.32-49.24l9.71-11.6c6.21-7.53,7.38-11.92,3.88-22.9l-6.21-20.07c-1.55-5.65-2.72-7.53-6.21-7.53-4.27,0-5.83,3.45-4.27,8.47l9.32,30.74h-38.06l-5.05-16.31c-10.87-35.13,7.77-52.07,36.89-52.07,25.24,0,37.28,10.04,47.38,42.97l44.27,143.34c.78,2.51,1.55,3.45,4.66,3.45h3.11l8.93,29.17h-22.53c-16.31,0-23.3-5.02-27.18-18.19l-.78-2.51h-2.33c1.55,14.74-5.05,23.21-20.19,23.21s-21.75-7.53-26.8-23.21ZM486.53,216.73c1.55,5.65,2.72,7.53,6.21,7.53,4.27,0,5.83-3.45,4.27-8.47l-25.24-81.86c0,2.2-1.17,3.76-1.94,4.71-3.88,4.39-5.05,7.84-1.56,19.13l18.25,58.97Z"/>
<path d="M564.5,208.58h38.84v42.34h-38.84v-42.34Z"/>

  </g>
  <text x="56" y="994.90" font-family="Plus Jakarta Sans" font-weight="800" font-size="74" fill="#1A1A1A" letter-spacing="-2.22" xml:space="preserve"><tspan>Use seus </tspan><tspan fill="#FFFFFF">dados bancários</tspan></text>
<text x="56" y="1072.60" font-family="Plus Jakarta Sans" font-weight="800" font-size="74" fill="#1A1A1A" letter-spacing="-2.22" xml:space="preserve"><tspan>a seu favor contra</tspan></text>
<text x="56" y="1150.30" font-family="Plus Jakarta Sans" font-weight="800" font-size="74" fill="#1A1A1A" letter-spacing="-2.22" xml:space="preserve"><tspan>o </tspan><tspan fill="#FFFFFF">endividamento</tspan><tspan>.</tspan></text>

</svg>