<?xml version="1.0" encoding="UTF-8"?>
<svg id="Layer_1" data-name="Layer 1" xmlns="http://www.w3.org/2000/svg" viewBox="0 0 841.89 340.72">
  <defs>
    <style>
      .cls-1 {
        fill: #231f20;
      }

      .cls-2 {
        fill: #fff;
      }
    </style>
  </defs>
  <rect class="cls-1" width="841.89" height="340.72"/>
  <g>
    <g>
      <path class="cls-2" d="M708.74,175.33c0,7.47,1.61,13.19,4.85,17.17,3.23,3.98,7.95,5.97,14.17,5.97,3.47,0,6.4-.55,8.78-1.64,2.38-1.09,4.83-2.89,7.33-5.39l4.6,3.63c-1.45,1.45-2.93,2.74-4.42,3.85-1.5,1.12-3.07,2.05-4.72,2.8-1.66.75-3.45,1.3-5.39,1.66-1.94.35-4.12.53-6.54.53-8.08,0-14.23-2.54-18.47-7.63-4.24-5.09-6.36-12.52-6.36-22.29s2.06-16.8,6.18-22.05c4.12-5.25,9.85-7.87,17.2-7.87s13.08,2.5,17.2,7.51c4.12,5.01,6.18,11.99,6.18,20.96v2.79h-40.59ZM742.9,166.79c-.08-1.01-.2-1.9-.36-2.67-.16-.77-.36-1.53-.61-2.3-.24-.77-.53-1.59-.85-2.48-1.29-3.07-3.29-5.47-6-7.21-2.71-1.74-5.75-2.6-9.15-2.6s-6.44.87-9.15,2.6c-2.71,1.74-4.71,4.14-6,7.21-.41.89-.71,1.72-.91,2.48-.2.77-.38,1.54-.55,2.3-.16.77-.28,1.66-.36,2.67-.08,1.01-.16,2.2-.24,3.57h34.41c-.08-1.37-.16-2.56-.24-3.57Z"/>
      <path class="cls-2" d="M439.76,150.26v53.66h-6.16v-53.66h-7.98v-4.59h7.98v-12.57c0-4.43,1.19-8.08,3.57-10.94,2.38-2.86,5.86-4.29,10.45-4.29h14.69v5.44h-13.6c-3.06,0-5.32.85-6.77,2.54-1.45,1.69-2.18,4.07-2.18,7.13v12.69h8.3v4.59h-8.3Z"/>
      <rect class="cls-2" x="462.47" y="145.67" width="6.16" height="58.25"/>
      <path class="cls-2" d="M578.78,198.08c-2.97,2.71-5.82,3.66-8.83,4.66-3.17.9-6.53,1.07-10.64,1.07-4.35,0-7.84-.4-10.45-1.21-2.62-.8-4.85-2.18-6.71-4.11-1.37-1.37-2.42-3.06-3.14-5.08-.73-2.01-1.09-4.11-1.09-6.29,0-5.32,1.79-9.44,5.38-12.39,3.58-2.94,8.56-4.41,14.93-4.41h18.85v-6.53c0-4.67-1.25-8.22-3.75-10.64-2.5-2.42-6.73-3.63-12.69-3.63-4.11,0-7.35.56-9.73,1.69-2.38,1.13-4.49,3.02-6.34,5.68l-4.47-3.87c2.5-3.46,5.36-5.82,8.58-7.07,3.22-1.25,7.21-1.87,11.96-1.87,7.73,0,13.43,1.65,17.1,4.96,3.66,3.3,5.5,8.02,5.5,14.14v23.87c-.25,3.73-.77,7.06-4.46,11ZM577.07,175.28h-18.13c-9.91,0-14.87,3.91-14.87,11.72,0,3.87,1.21,6.73,3.63,8.58,2.42,1.85,6.28,2.78,11.6,2.78,2.66,0,5.21-.24,7.67-.72,2.46-.48,4.73-1.73,6.83-3.75,2.18-2.01,3.26-5.72,3.26-11.12v-7.49Z"/>
      <path class="cls-2" d="M691.2,199.15c-1.45,1.17-2.92,2.1-4.41,2.78-1.49.69-3.06,1.17-4.71,1.45-1.65.28-3.49.42-5.5.42-3.95,0-7.51-.69-10.7-2.05-3.18-1.37-5.88-3.34-8.1-5.92-2.22-2.58-3.91-5.72-5.08-9.43-1.17-3.71-1.75-7.86-1.75-12.45s.58-8.74,1.75-12.45c1.17-3.7,2.86-6.85,5.08-9.43,2.22-2.58,4.91-4.55,8.1-5.92,3.18-1.37,6.75-2.05,10.7-2.05,2.01,0,3.85.14,5.5.42,1.65.28,3.22.77,4.71,1.45,1.49.68,2.96,1.61,4.41,2.78,1.45,1.17,2.98,2.6,4.59,4.29l-4.23,3.87c-2.5-2.74-4.85-4.65-7.07-5.74-2.22-1.09-4.85-1.63-7.92-1.63-3.31,0-6.27.65-8.88,1.93-2.62,1.29-4.81,3.22-6.59,5.8-1.45,2.1-2.48,4.41-3.08,6.95-.6,2.54-.91,5.78-.91,9.73s.3,7.19.91,9.73c.6,2.54,1.63,4.85,3.08,6.95,1.77,2.58,3.97,4.51,6.59,5.8,2.62,1.29,5.58,1.93,8.88,1.93,1.53,0,2.94-.12,4.23-.36,1.29-.24,2.52-.64,3.69-1.21,1.17-.56,2.34-1.33,3.5-2.3,1.17-.97,2.36-2.13,3.56-3.51l4.23,3.87c-1.61,1.69-3.14,3.12-4.59,4.29Z"/>
      <path class="cls-2" d="M633.34,150.5c-3.87-3.71-9.02-5.56-15.47-5.56-.3,0-.59.03-.89.04-.3,0-.59-.04-.89-.04-6.44,0-11.6,1.85-15.47,5.56-4.03,3.87-6.04,9.27-6.04,16.19v37.22h6.16v-36.13c0-5.64,1.37-9.95,4.11-12.93,2.74-2.98,6.73-4.47,11.96-4.47.06,0,.11,0,.16,0,.06,0,.11,0,.16,0,5.24,0,9.22,1.49,11.96,4.47,2.74,2.98,4.11,7.29,4.11,12.93v36.13h6.16v-37.22c0-6.93-2.02-12.33-6.04-16.19Z"/>
      <path class="cls-2" d="M520.15,150.5c-3.87-3.71-9.02-5.56-15.47-5.56-.3,0-.59.03-.89.04-.3,0-.59-.04-.89-.04-6.44,0-11.6,1.85-15.47,5.56-4.03,3.87-6.04,9.27-6.04,16.19v37.22h6.16v-36.13c0-5.64,1.37-9.95,4.11-12.93,2.74-2.98,6.73-4.47,11.96-4.47.06,0,.11,0,.16,0,.06,0,.11,0,.16,0,5.24,0,9.22,1.49,11.96,4.47,2.74,2.98,4.11,7.29,4.11,12.93v36.13h6.16v-37.22c0-6.93-2.02-12.33-6.04-16.19Z"/>
    </g>
    <g>
      <path class="cls-2" d="M338.36,172.87h-58.5c.84,5.16,3.1,9.26,6.77,12.31,3.67,3.05,8.35,4.57,14.04,4.57,6.8,0,12.65-2.38,17.54-7.14l15.34,7.2c-3.83,5.43-8.41,9.44-13.74,12.04-5.34,2.6-11.67,3.9-19.01,3.9-11.38,0-20.66-3.59-27.82-10.77-7.16-7.18-10.74-16.18-10.74-26.98s3.57-20.27,10.71-27.58c7.14-7.31,16.09-10.97,26.85-10.97,11.43,0,20.72,3.66,27.88,10.97,7.16,7.32,10.74,16.98,10.74,28.98l-.07,3.47ZM320.15,158.53c-1.2-4.05-3.58-7.34-7.12-9.87-3.54-2.53-7.65-3.8-12.33-3.8-5.08,0-9.53,1.42-13.36,4.27-2.41,1.78-4.63,4.91-6.68,9.41h39.49Z"/>
      <path class="cls-2" d="M350.28,138.7h18.46v-.02c4.19-3.53,7.98-5.98,11.38-7.36,3.4-1.38,6.88-2.07,10.44-2.07,7.29,0,13.48,2.55,18.57,7.64,4.28,4.33,6.41,10.73,6.41,19.21v48.63h-18.26v-32.22c0-8.78-.39-14.61-1.18-17.5-.79-2.88-2.16-5.08-4.12-6.59-1.96-1.51-4.37-2.26-7.25-2.26-3.73,0-6.94,1.25-9.61,3.75-2.68,2.5-4.53,5.96-5.57,10.37-.54,2.3-.81,7.27-.81,14.93v29.52h-18.46v-66.02Z"/>
      <path class="cls-2" d="M199.59,139.47v-.22c3.34-3.34,6.94-5.84,10.82-7.51,3.88-1.67,8.02-2.5,12.44-2.5,9.6,0,17.76,3.63,24.48,10.89,6.72,7.26,10.08,16.57,10.08,27.93s-3.47,20.12-10.41,27.49c-6.94,7.37-15.17,11.06-24.68,11.06-4.24,0-8.18-.75-11.84-2.27-3.65-1.51-7.28-3.98-10.89-7.41v25.74h-18.33v-83.21h18.33ZM219,146.29c-5.82,0-10.64,1.98-14.47,5.95-3.83,3.97-5.75,9.15-5.75,15.56s1.92,11.82,5.75,15.86c3.72,3.92,8.37,5.93,13.96,6.05,5.07.11,10.08-1.7,13.77-5.17,4.51-4.24,6.76-9.8,6.76-16.67,0-6.31-1.89-11.48-5.68-15.52-3.79-4.03-8.57-6.05-14.34-6.05Z"/>
    </g>
    <path class="cls-2" d="M169.04,148.17c-3.43-5.95-8.19-10.66-14.3-14.13-5.38-3.06-11.08-4.77-17.1-5.13v17.4c4.9.44,8.99,2.38,12.29,5.82,3.77,3.95,5.66,9.07,5.66,15.39s-1.92,11.47-5.76,15.49c-3.84,4.01-8.65,6.02-14.43,6.02-5.29,0-9.73-1.67-13.34-4.98l-12.34,12.34c7.16,6.54,15.66,9.82,25.51,9.82,7.17,0,13.73-1.7,19.68-5.11,6.01-3.44,10.74-8.22,14.2-14.35,3.27-5.79,5.02-12.36,5.07-19.01.05-7.01-1.66-13.53-5.14-19.57Z"/>
    <g>
      <path class="cls-2" d="M121.77,151.56c3.19-3.06,7-4.81,11.46-5.24v-29.12c-11.36.83-22.14,6.29-29.7,16.12l18.24,18.24Z"/>
      <path class="cls-2" d="M115.47,165.73c.25-4.12,1.41-7.71,3.46-10.78l-18.54-18.54c-6.42,8.96-8.73,20.39-7.5,29.32h22.59Z"/>
      <path class="cls-2" d="M115.53,170.14h-22.64c1.73,10.31,7.51,17.99,13.73,23.09l12.53-12.53c-2.06-2.97-3.26-6.49-3.62-10.56Z"/>
    </g>
  </g>
</svg>